# xmcd CD database file
#
# Track frame offsets:
#	150
#	15745
#	32035
#	53575
#	74785
#	95975
#	115635
#	131352
#	148570
#	163507
#	183955
#
# Disc length: 2827 seconds
#
# Revision: 4
# Processed by: cddbd v1.5.2PL0 Copyright (c) Steve Scherf et al.
# Submitted via: CDex 1.51
#
DISCID=950b090b
DTITLE=Mercyful Fate - Time
DYEAR=1994
DGENRE=Heavy Metal
TTITLE0=Nightmare Be Thy Name
TTITLE1=Angel Of Light
TTITLE2=Witches' Dance
TTITLE3=The Mad Arab
TTITLE4=My Demon
TTITLE5=Time
TTITLE6=The Preacher
TTITLE7=The Lady In Black
TTITLE8=Mirror
TTITLE9=The Afterlife
TTITLE10=Castillo Del Mortes
EXTD=YEAR: 1994
EXTT0=
EXTT1=
EXTT2=
EXTT3=
EXTT4=
EXTT5=
EXTT6=
EXTT7=
EXTT8=
EXTT9=
EXTT10=
PLAYORDER=
